<?xml version="1.0" standalone="no"?>
<!DOCTYPE svg PUBLIC "-//W3C//DTD SVG 20010904//EN"
 "http://www.w3.org/TR/2001/REC-SVG-20010904/DTD/svg10.dtd">
<svg version="1.0" xmlns="http://www.w3.org/2000/svg"
 width="1536.000000pt" height="1024.000000pt" viewBox="0 0 1536.000000 1024.000000"
 preserveAspectRatio="xMidYMid meet">
<metadata>
Created by potrace 1.16, written by Peter Selinger 2001-2019
</metadata>
<g transform="translate(0.000000,1024.000000) scale(0.100000,-0.100000)"
fill="#000000" stroke="none">
<path d="M5296 8361 c-57 -38 -55 -16 -56 -679 0 -673 -2 -655 60 -687 26 -13
297 -15 2367 -15 2300 0 2339 0 2370 20 21 12 36 32 43 57 8 26 10 223 8 645
l-3 608 -33 32 -32 33 -2348 2 c-2307 3 -2348 3 -2376 -16z m727 -521 c122
-77 139 -230 38 -331 -84 -85 -195 -91 -286 -17 -50 42 -75 96 -75 163 0 68
17 110 61 154 45 45 83 60 155 61 50 0 68 -5 107 -30z m3480 15 c77 -32 127
-110 127 -197 -1 -97 -50 -167 -144 -203 -157 -60 -322 95 -276 259 16 57 63
114 114 137 49 22 131 24 179 4z"/>
<path d="M6792 6593 l3 -338 859 -3 c626 -1 862 1 872 9 11 9 14 75 14 340 l0
329 -875 0 -875 0 2 -337z"/>
<path d="M7010 5541 l0 -659 327 -321 c180 -177 332 -321 337 -321 6 0 156
145 333 323 l323 322 0 625 c0 344 0 640 0 658 l0 32 -660 0 -660 0 0 -659z"/>
<path d="M4501 5925 c-55 -47 -64 -130 -18 -173 21 -19 134 -97 687 -477 409
-281 1008 -694 1190 -820 1087 -754 1115 -773 1187 -795 36 -11 89 -20 118
-20 67 0 170 32 221 68 21 15 208 142 414 282 206 140 456 309 555 377 99 67
599 402 1110 744 512 341 940 632 953 646 39 42 23 117 -34 162 -34 27 -77 27
-123 -1 -88 -54 -1807 -1202 -2380 -1591 -349 -236 -649 -434 -668 -439 -54
-15 -107 0 -186 51 -78 51 -412 281 -1152 792 -471 326 -788 544 -1200 826
-121 83 -299 205 -395 272 -196 135 -222 144 -279 96z"/>
<path d="M4822 4648 c-9 -9 -12 -193 -12 -765 l0 -753 845 0 845 0 0 505 0
505 -25 16 c-34 22 -61 16 -256 -60 l-164 -65 -90 92 c-50 51 -184 192 -298
315 l-208 222 -313 0 c-229 0 -315 -3 -324 -12z"/>
<path d="M9634 4383 c-142 -152 -275 -294 -294 -315 l-35 -38 -165 66 c-116
47 -179 67 -212 67 -83 1 -78 38 -78 -529 l0 -504 848 2 847 3 3 743 c1 501
-1 749 -8 763 -10 18 -24 19 -329 19 l-317 0 -260 -277z"/>
<path d="M4520 3067 c-49 -25 -50 -35 -48 -439 l3 -377 23 -23 23 -23 3137 -3
c1725 -1 3147 0 3160 3 12 3 31 14 42 25 19 19 20 35 20 408 l0 389 -26 24
-26 24 -3141 2 c-2508 2 -3147 0 -3167 -10z"/>
</g>
</svg>
