<?xml version="1.0" standalone="no"?>
<!DOCTYPE svg PUBLIC "-//W3C//DTD SVG 20010904//EN"
 "http://www.w3.org/TR/2001/REC-SVG-20010904/DTD/svg10.dtd">
<svg version="1.0" xmlns="http://www.w3.org/2000/svg"
 width="1536.000000pt" height="1024.000000pt" viewBox="0 0 1536.000000 1024.000000"
 preserveAspectRatio="xMidYMid meet">
<metadata>
Created by potrace 1.16, written by Peter Selinger 2001-2019
</metadata>
<g transform="translate(0.000000,1024.000000) scale(0.100000,-0.100000)"
fill="#000000" stroke="none">
<path d="M5005 7425 c-115 -18 -234 -59 -358 -122 -257 -131 -450 -327 -594
-603 -73 -141 -106 -228 -253 -675 -158 -483 -255 -676 -426 -856 -89 -94
-106 -136 -80 -204 28 -73 96 -106 174 -86 53 15 197 164 285 298 124 187 185
334 368 888 134 408 199 549 327 707 123 153 307 274 509 334 118 35 338 45
461 20 194 -39 355 -113 566 -258 6 -4 -10 -36 -38 -78 -61 -92 -75 -154 -52
-233 31 -108 38 -113 554 -424 l472 -285 106 -126 c128 -155 174 -186 269
-180 33 2 82 11 108 18 46 14 51 13 87 -8 22 -12 52 -22 67 -22 28 0 93 33 93
48 0 4 74 115 165 247 151 220 165 243 165 283 0 67 -25 108 -94 154 -34 23
-196 137 -361 253 -165 116 -408 287 -540 380 -132 92 -298 210 -370 260 -165
117 -168 118 -240 119 -74 1 -122 -25 -158 -87 -14 -23 -34 -50 -44 -59 -19
-17 -21 -17 -59 11 -64 47 -268 160 -351 195 -94 40 -249 84 -335 96 -89 13
-328 10 -423 -5z m1684 -742 c91 -64 202 -142 246 -173 44 -31 133 -93 198
-139 64 -45 122 -91 127 -101 29 -54 -12 -124 -71 -124 -28 0 -77 30 -264 159
-365 253 -509 356 -522 373 -16 19 -17 66 -2 93 15 29 67 49 98 38 13 -6 99
-62 190 -126z"/>
<path d="M8007 5842 c-22 -25 -168 -234 -173 -247 -3 -6 39 -42 93 -80 169
-120 238 -202 311 -375 71 -170 70 -164 35 -194 -49 -41 -48 -72 9 -221 28
-71 83 -218 124 -325 41 -107 78 -203 84 -212 5 -10 10 -24 10 -32 0 -7 12
-25 27 -40 22 -23 35 -27 71 -25 49 3 52 1 82 -79 56 -147 309 -618 368 -684
19 -23 61 -23 69 -2 13 35 -90 473 -178 754 -16 52 -29 100 -29 107 0 7 13 19
29 27 17 9 34 29 40 48 10 29 5 52 -58 233 -89 257 -184 515 -201 542 -20 31
-64 54 -101 51 l-32 -3 -47 120 c-51 133 -107 247 -153 315 -61 89 -178 201
-328 312 -34 25 -38 26 -52 10z"/>
<path d="M9725 5610 c-45 -17 -34 35 -180 -851 -25 -152 -45 -292 -45 -312 0
-70 82 -89 115 -27 15 29 75 338 180 927 37 211 36 246 -12 264 -28 10 -31 10
-58 -1z"/>
<path d="M9176 5239 c-70 -55 6 -173 80 -124 51 33 50 110 -2 134 -35 16 -47
14 -78 -10z"/>
<path d="M10820 5232 c-50 -24 -76 -80 -60 -128 33 -100 186 -92 206 12 8 45
-19 98 -61 118 -41 20 -42 20 -85 -2z"/>
<path d="M7481 4824 c-100 -84 7 -234 119 -167 60 35 67 108 16 159 -43 43
-90 46 -135 8z"/>
<path d="M10369 4838 c-9 -7 -60 -74 -115 -148 -263 -359 -857 -1120 -873
-1120 -9 0 -35 -90 -27 -97 2 -2 43 23 92 56 132 92 136 84 27 -56 -42 -54
-110 -137 -151 -185 l-73 -88 -158 0 -158 0 -119 78 c-113 73 -122 77 -179 79
-33 1 -190 27 -350 58 -303 59 -493 94 -659 122 l-99 17 -19 -24 c-35 -43 -13
-55 267 -152 442 -152 460 -158 463 -158 1 0 2 -4 2 -10 0 -7 -318 -10 -934
-10 l-933 0 -34 -23 c-46 -31 -61 -62 -56 -120 3 -37 11 -56 33 -78 l29 -29
1305 0 c718 -1 1931 -1 2697 0 l1391 0 31 25 c60 51 48 162 -21 205 -32 20
-48 20 -905 20 -729 0 -873 2 -873 14 0 8 111 63 276 137 292 131 319 149 280
187 -19 19 22 26 -584 -103 -330 -70 -358 -74 -349 -52 3 9 134 210 289 447
507 771 608 928 608 950 0 10 -9 29 -21 44 -23 29 -73 36 -100 14z"/>
<path d="M9184 4736 c-18 -14 -19 -33 -25 -408 l-5 -393 33 -133 c18 -73 33
-146 33 -162 0 -54 16 -39 59 56 l44 95 -7 187 c-31 757 -30 743 -50 758 -25
18 -57 18 -82 0z"/>
<path d="M6755 4345 c-32 -31 -33 -78 -2 -108 30 -30 1079 -557 1109 -557 68
1 86 86 26 123 -13 8 -113 63 -223 122 -110 59 -218 118 -240 130 -187 103
-607 315 -624 315 -12 0 -33 -11 -46 -25z"/>
<path d="M7885 4345 c-48 -47 -37 -72 88 -208 61 -67 178 -188 258 -270 130
-133 148 -149 170 -142 94 29 72 66 -299 491 -144 164 -168 179 -217 129z"/>
<path d="M10905 4256 c-154 -96 -181 -117 -189 -144 -7 -24 -5 -37 8 -57 32
-49 52 -44 237 61 94 53 184 108 200 122 35 29 38 68 8 106 -36 46 -65 36
-264 -88z"/>
<path d="M11655 3903 c-93 -30 -305 -97 -470 -150 -165 -52 -306 -100 -314
-106 -23 -19 -31 -55 -19 -82 17 -37 53 -44 128 -25 123 32 828 247 892 271
72 28 49 152 -27 148 -11 0 -96 -25 -190 -56z"/>
<path d="M10266 3866 c-74 -56 -92 -87 -72 -127 25 -50 82 -40 191 33 45 30
50 37 53 75 2 33 -1 44 -20 57 -40 28 -78 19 -152 -38z"/>
<path d="M6873 3723 c-36 -7 -73 -59 -73 -103 0 -55 33 -91 90 -97 104 -12
155 104 77 174 -24 22 -60 32 -94 26z"/>
</g>
</svg>
